<svg xmlns="http://www.w3.org/2000/svg" viewBox="0 0 512 512" width="100%" height="100%">
  <rect width="512" height="512" rx="128" fill="#1c1917" />
  <path d="M192 368h128V224H192v144zm144-160V192c0-17.6-14.4-32-32-32h-96c-17.6 0-32 14.4-32 32v16h160zm48 32v96c0 17.6-14.4 32-32 32h-16v-160h16c17.6 0 32 14.4 32 32zm-224 160h192c17.6 0 32-14.4 32-32V192c0-35.3-28.7-64-64-64h-128c-35.3 0-64 28.7-64 64v176c0 17.6 14.4 32 32 32z" fill="#d97706" />
  <path d="M176 128c0-26.5 21.5-48 48-48s48 21.5 48 48c0-26.5 21.5-48 48-48s48 21.5 48 48" stroke="#f59e0b" stroke-width="24" stroke-linecap="round" fill="none" />
</svg>
